<svg version="1.1" id="Layer_1" xmlns="http://www.w3.org/2000/svg" xmlns:xlink="http://www.w3.org/1999/xlink" x="0px" y="0px"
	 width="100%" viewBox="0 0 200 200" enable-background="new 0 0 200 200" xml:space="preserve">
<path fill="#004646" opacity="1.000000" stroke="none" 
	d="
M133.000000,201.000000 
	C88.666672,201.000000 44.833340,201.000000 1.000006,201.000000 
	C1.000004,134.333344 1.000004,67.666679 1.000002,1.000015 
	C67.666656,1.000010 134.333313,1.000010 200.999969,1.000005 
	C200.999985,67.666649 200.999985,134.333298 201.000000,200.999969 
	C178.500000,201.000000 156.000000,201.000000 133.000000,201.000000 
M134.886765,134.953308 
	C134.886765,134.953308 134.790375,134.871765 135.138535,134.664551 
	C135.388000,134.094711 135.637466,133.524887 136.090851,132.286957 
	C136.341156,129.962540 136.591446,127.638115 137.123230,124.713173 
	C138.076416,123.531517 139.029602,122.349861 140.604202,120.863892 
	C141.852951,119.146255 143.241714,117.512115 144.324875,115.695732 
	C147.952026,109.613281 147.644974,108.873047 140.966003,106.178223 
	C141.499893,105.018219 142.033783,103.858208 143.192688,102.759056 
	C143.801773,102.907440 144.410843,103.055817 145.524994,103.487068 
	C145.877090,103.646385 146.229202,103.805695 147.188873,103.724983 
	C149.977432,100.229904 153.093231,96.940430 155.456818,93.178352 
	C157.559830,89.830986 156.263229,87.931427 152.129318,87.901405 
	C137.846039,87.797668 123.560425,87.769318 109.279343,87.970108 
	C107.792839,87.991013 106.330475,89.728195 104.856911,90.669044 
	C106.149292,92.085442 107.203445,94.291534 108.779671,94.767036 
	C113.138313,96.081924 117.714882,96.674446 121.819832,98.132751 
	C120.863869,99.132629 119.907898,100.132507 118.283989,101.102539 
	C117.850952,101.000633 117.417923,100.898720 116.475067,100.518913 
	C116.122353,100.358841 115.769638,100.198769 114.801239,100.135628 
	C114.192825,100.013664 113.584412,99.891701 112.474373,99.496994 
	C112.125092,99.345825 111.775810,99.194656 110.783661,99.273621 
	C109.621231,100.124977 108.458801,100.976326 107.296364,101.827682 
	C108.549141,103.514259 109.801910,105.200836 110.899391,107.509033 
	C110.577248,108.739418 110.255096,109.969803 109.268547,111.450775 
	C108.207108,112.836990 107.145676,114.223206 106.380280,116.092728 
	C106.614525,116.387711 106.848770,116.682686 107.495705,117.188850 
	C107.750397,117.379639 107.935310,117.623367 107.708565,118.496887 
	C107.134262,119.706963 106.559959,120.917030 105.251373,122.192612 
	C101.241684,123.205322 101.212334,125.561592 103.181816,128.500183 
	C107.150551,134.421814 111.171638,140.308334 115.147758,146.225037 
	C116.866028,148.781921 118.390694,151.493805 122.185318,149.009460 
	C127.055336,145.821030 127.917381,143.741592 126.048203,138.833023 
	C126.740417,137.868271 127.432632,136.903519 128.635193,136.176987 
	C129.082825,136.517639 129.530472,136.858292 130.221100,137.456085 
	C130.824905,137.397446 131.428726,137.338791 132.561188,137.004578 
	C133.056091,136.673523 133.550980,136.342484 134.384140,135.652802 
	C134.599274,135.402496 134.793991,135.137192 134.886765,134.953308 
M94.536743,78.279350 
	C96.162117,78.207161 97.787491,78.134964 99.412865,78.062767 
	C99.214264,76.393173 99.535828,74.397369 98.728271,73.109665 
	C94.955734,67.094048 90.786041,61.329102 86.931953,55.362389 
	C84.709724,51.922047 82.604698,50.147686 78.702545,53.447674 
	C72.952248,58.310596 72.724670,58.718941 76.011459,63.690136 
	C75.005943,64.127388 74.000435,64.564644 72.346375,64.872231 
	C66.414742,63.665394 66.418480,69.134399 64.637871,72.153870 
	C62.859047,75.170326 65.842789,76.470634 68.033585,77.641457 
	C74.034218,80.848320 79.986412,84.161743 86.114563,87.106743 
	C88.800598,88.397568 91.921028,92.418282 94.779144,88.538818 
	C97.477280,84.876488 92.396950,83.521706 91.355110,80.545860 
	C92.221634,79.705696 93.088158,78.865532 94.536743,78.279350 
M56.290085,98.331703 
	C54.405529,99.239204 52.184067,99.787743 50.729290,101.153152 
	C49.214008,102.575356 48.405010,104.766960 47.345882,106.655067 
	C44.287651,112.106979 45.237938,113.883369 51.395374,113.906845 
	C64.895081,113.958305 78.396606,114.006203 91.893349,113.795914 
	C93.659210,113.768394 95.401283,112.214539 97.154366,111.367638 
	C95.593277,110.014450 94.233391,107.911186 92.438461,107.429695 
	C80.700531,104.281006 68.868446,101.483315 56.290085,98.331703 
M68.503906,83.123177 
	C61.393139,79.417969 61.070148,79.519539 57.136040,86.704414 
	C56.976383,86.995987 56.844284,87.303871 56.670017,87.586037 
	C54.399937,91.261719 55.392990,93.370117 59.612106,94.381401 
	C69.302307,96.704041 78.918961,99.346733 88.649086,101.477699 
	C90.441460,101.870247 92.627502,100.465225 94.631844,99.889908 
	C93.480782,98.301453 92.672157,96.113495 91.120140,95.226997 
	C83.908333,91.107666 76.490631,87.348824 68.503906,83.123177 
M104.181076,138.241058 
	C103.048920,136.606949 102.166771,134.675674 100.698792,133.440750 
	C99.679893,132.583603 97.667908,132.139297 96.457153,132.554123 
	C95.680573,132.820190 94.898430,135.195969 95.243797,136.261337 
	C97.285889,142.560776 99.354187,148.886871 102.016922,154.938553 
	C104.043198,159.543716 107.679306,156.841232 110.536415,155.666458 
	C113.613846,154.401047 113.475624,152.083252 111.772583,149.584610 
	C109.346344,146.024902 106.981689,142.423218 104.181076,138.241058 
M97.998169,63.569855 
	C98.449844,64.265556 98.752724,65.169754 99.380943,65.618088 
	C101.310555,66.995193 103.938545,69.688339 105.259659,69.179848 
	C108.785553,67.822739 106.424057,64.825211 105.730034,62.401699 
	C104.396797,57.746071 103.383659,52.982601 101.757011,48.435848 
	C101.177269,46.815365 99.124107,44.502911 97.882942,44.586117 
	C95.102196,44.772556 92.259674,46.004463 89.794487,47.422775 
	C89.240578,47.741459 89.664185,50.837021 90.443970,52.189373 
	C92.593643,55.917511 95.170380,59.399399 97.998169,63.569855 
M105.778252,50.248333 
	C106.674706,53.042717 107.209381,56.036411 108.599129,58.559040 
	C109.475990,60.150684 111.631149,61.038105 113.212906,62.241413 
	C114.134140,60.575817 115.753670,58.941441 115.829834,57.238060 
	C115.983818,53.794281 115.558250,50.258595 114.843498,46.872303 
	C114.528236,45.378696 113.013954,43.128151 111.886673,43.030083 
	C109.665154,42.836823 107.081276,43.495163 105.178459,44.665176 
	C104.467255,45.102486 105.238014,47.949951 105.778252,50.248333 
M94.120720,158.945312 
	C94.996330,157.298889 96.879311,155.416779 96.559563,154.050003 
	C95.581787,149.870590 93.939392,145.806305 92.151749,141.881134 
	C91.610138,140.691895 89.755333,140.100739 88.502022,139.235626 
	C87.659096,140.509628 86.137215,141.767334 86.106133,143.060837 
	C86.026787,146.362106 86.800804,149.674545 86.885155,152.991379 
	C86.995247,157.320099 88.708847,159.609543 94.120720,158.945312 
M81.853638,148.782715 
	C81.731346,147.960327 81.847763,146.984344 81.437752,146.347076 
	C80.546570,144.961899 79.386719,143.749603 78.336700,142.466629 
	C77.174416,143.833694 75.911636,145.131378 74.897346,146.600616 
	C74.467735,147.222931 74.594002,148.213379 74.409485,149.023239 
	C73.583916,152.646606 74.306793,155.723694 78.524200,155.865143 
	C82.967888,156.014191 81.896614,152.340973 81.853638,148.782715 
M127.316467,53.855812 
	C127.470764,53.038643 127.643707,52.224476 127.776131,51.403774 
	C128.347870,47.860390 126.670197,45.766624 123.259232,45.725357 
	C119.566765,45.680683 119.906357,48.646851 120.044769,51.182716 
	C120.108139,52.343697 119.953468,53.652672 120.439095,54.623772 
	C121.239380,56.224049 122.479416,57.604412 123.534088,59.077469 
	C124.753136,57.605129 125.972183,56.132786 127.316467,53.855812 
M64.441795,144.177429 
	C65.071823,145.629807 65.536850,147.204102 66.453545,148.444656 
	C66.669510,148.736923 68.915604,148.204330 69.321983,147.516235 
	C69.877785,146.575150 69.870155,144.144608 69.576996,144.053787 
	C68.100159,143.596252 66.452003,143.691757 64.441795,144.177429 
M132.330048,57.675034 
	C133.902634,57.808430 135.509445,58.151958 137.020264,57.905945 
	C137.339737,57.853920 137.711533,55.480930 137.305588,54.484299 
	C137.001831,53.738575 134.859650,52.873524 134.619492,53.119484 
	C133.548065,54.216835 132.865891,55.694260 132.330048,57.675034 
z"/>
<path fill="#44B2B1" opacity="1.000000" stroke="none" 
	d="
M56.678604,98.451317 
	C68.868446,101.483315 80.700531,104.281006 92.438461,107.429695 
	C94.233391,107.911186 95.593277,110.014450 97.154373,111.367645 
	C95.401283,112.214539 93.659210,113.768394 91.893349,113.795914 
	C78.396606,114.006203 64.895081,113.958305 51.395374,113.906845 
	C45.237938,113.883369 44.287651,112.106979 47.345882,106.655067 
	C48.405010,104.766960 49.214008,102.575356 50.729290,101.153152 
	C52.184067,99.787743 54.405529,99.239204 56.678604,98.451317 
z"/>
<path fill="#45B4B3" opacity="1.000000" stroke="none" 
	d="
M122.205292,97.552551 
	C117.714882,96.674446 113.138313,96.081924 108.779671,94.767036 
	C107.203445,94.291534 106.149292,92.085442 104.856918,90.669052 
	C106.330475,89.728195 107.792839,87.991013 109.279343,87.970108 
	C123.560425,87.769318 137.846039,87.797668 152.129318,87.901405 
	C156.263229,87.931427 157.559830,89.830986 155.456818,93.178352 
	C153.093231,96.940430 149.977432,100.229904 146.685974,103.612808 
	C145.795364,103.401825 145.407654,103.303009 145.019928,103.204193 
	C144.410843,103.055817 143.801773,102.907440 142.547150,102.527573 
	C135.336166,100.714912 128.770737,99.133736 122.205292,97.552551 
z"/>
<path fill="#44B2B1" opacity="1.000000" stroke="none" 
	d="
M68.825256,83.292068 
	C76.490631,87.348824 83.908333,91.107666 91.120140,95.226997 
	C92.672157,96.113495 93.480782,98.301453 94.631844,99.889908 
	C92.627502,100.465225 90.441460,101.870247 88.649086,101.477699 
	C78.918961,99.346733 69.302307,96.704041 59.612106,94.381401 
	C55.392990,93.370117 54.399937,91.261719 56.670017,87.586037 
	C56.844284,87.303871 56.976383,86.995987 57.136040,86.704414 
	C61.070148,79.519539 61.393139,79.417969 68.825256,83.292068 
z"/>
<path fill="#44B2B2" opacity="1.000000" stroke="none" 
	d="
M116.984886,100.796806 
	C117.417923,100.898720 117.850952,101.000633 118.927795,101.323151 
	C126.724693,103.282150 133.877792,105.020531 141.030899,106.758911 
	C147.644974,108.873047 147.952026,109.613281 144.324875,115.695732 
	C143.241714,117.512115 141.852951,119.146255 139.933884,120.936829 
	C137.603378,120.286545 135.900818,119.646523 134.290207,118.825981 
	C126.531448,114.873146 118.797462,110.871635 111.054688,106.887405 
	C109.801910,105.200836 108.549141,103.514259 107.296371,101.827682 
	C108.458801,100.976326 109.621231,100.124977 111.295502,99.395401 
	C112.196892,99.601372 112.586441,99.685555 112.975998,99.769745 
	C113.584412,99.891701 114.192825,100.013664 115.304932,100.325035 
	C116.200714,100.608566 116.592796,100.702682 116.984886,100.796806 
z"/>
<path fill="#44B1B0" opacity="1.000000" stroke="none" 
	d="
M90.983444,81.024658 
	C92.396950,83.521706 97.477280,84.876488 94.779144,88.538818 
	C91.921028,92.418282 88.800598,88.397568 86.114563,87.106743 
	C79.986412,84.161743 74.034218,80.848320 68.033585,77.641457 
	C65.842789,76.470634 62.859047,75.170326 64.637871,72.153870 
	C66.418480,69.134399 66.414742,63.665394 72.839394,65.167343 
	C73.947487,65.904694 74.562561,66.346939 75.185814,66.844810 
	C75.193993,66.900436 75.306175,66.892654 75.463692,67.143105 
	C76.382462,67.998009 77.143723,68.602455 78.007362,69.403687 
	C78.304276,69.839127 78.551254,69.994286 79.023285,70.355789 
	C83.125069,74.105309 87.054253,77.564980 90.983444,81.024658 
z"/>
<path fill="#44B2B0" opacity="1.000000" stroke="none" 
	d="
M129.978119,137.198944 
	C129.530472,136.858292 129.082825,136.517639 128.208588,135.768692 
	C121.204803,129.546951 114.627625,123.733498 108.050438,117.920044 
	C107.935310,117.623367 107.750397,117.379639 107.188492,116.812271 
	C106.615593,116.160271 106.349915,115.884842 106.084229,115.609421 
	C107.145676,114.223206 108.207108,112.836990 109.940948,111.541138 
	C112.434814,112.366570 114.344559,112.938065 116.062241,113.865364 
	C123.020851,117.621994 129.920395,121.488029 136.841736,125.313698 
	C136.591446,127.638115 136.341156,129.962540 135.759552,132.792297 
	C135.215622,133.822357 135.003006,134.347061 134.790375,134.871765 
	C134.790375,134.871765 134.886765,134.953308 134.695084,135.024017 
	C134.350906,135.400299 134.198395,135.705872 134.045883,136.011429 
	C133.550980,136.342484 133.056091,136.673523 131.956635,137.090576 
	C130.894104,137.184036 130.436111,137.191483 129.978119,137.198944 
z"/>
<path fill="#45B2B1" opacity="1.000000" stroke="none" 
	d="
M76.774994,63.372246 
	C72.724670,58.718941 72.952248,58.310596 78.702545,53.447674 
	C82.604698,50.147686 84.709724,51.922047 86.931953,55.362389 
	C90.786041,61.329102 94.955734,67.094048 98.728271,73.109665 
	C99.535828,74.397369 99.214264,76.393173 99.412865,78.062767 
	C97.787491,78.134964 96.162117,78.207161 94.069511,77.870773 
	C89.708344,74.043503 85.814400,70.624794 81.728302,66.939865 
	C79.976639,65.616028 78.417130,64.558426 76.869034,63.448082 
	C76.880432,63.395336 76.774994,63.372246 76.774994,63.372246 
z"/>
<path fill="#44B2B1" opacity="1.000000" stroke="none" 
	d="
M125.785439,139.509262 
	C127.917381,143.741592 127.055336,145.821030 122.185318,149.009460 
	C118.390694,151.493805 116.866028,148.781921 115.147758,146.225037 
	C111.171638,140.308334 107.150551,134.421814 103.181816,128.500183 
	C101.212334,125.561592 101.241684,123.205322 105.834473,122.405777 
	C112.873528,128.249054 119.329483,133.879166 125.785439,139.509262 
z"/>
<path fill="#44B2B1" opacity="1.000000" stroke="none" 
	d="
M104.385910,138.540253 
	C106.981689,142.423218 109.346344,146.024902 111.772583,149.584610 
	C113.475624,152.083252 113.613846,154.401047 110.536415,155.666458 
	C107.679306,156.841232 104.043198,159.543716 102.016922,154.938553 
	C99.354187,148.886871 97.285889,142.560776 95.243797,136.261337 
	C94.898430,135.195969 95.680573,132.820190 96.457153,132.554123 
	C97.667908,132.139297 99.679893,132.583603 100.698792,133.440750 
	C102.166771,134.675674 103.048920,136.606949 104.385910,138.540253 
z"/>
<path fill="#44B1B0" opacity="1.000000" stroke="none" 
	d="
M97.788193,63.274269 
	C95.170380,59.399399 92.593643,55.917511 90.443970,52.189373 
	C89.664185,50.837021 89.240578,47.741459 89.794487,47.422775 
	C92.259674,46.004463 95.102196,44.772556 97.882942,44.586117 
	C99.124107,44.502911 101.177269,46.815365 101.757011,48.435848 
	C103.383659,52.982601 104.396797,57.746071 105.730034,62.401699 
	C106.424057,64.825211 108.785553,67.822739 105.259659,69.179848 
	C103.938545,69.688339 101.310555,66.995193 99.380943,65.618088 
	C98.752724,65.169754 98.449844,64.265556 97.788193,63.274269 
z"/>
<path fill="#44B0AF" opacity="1.000000" stroke="none" 
	d="
M105.555649,49.973412 
	C105.238014,47.949951 104.467255,45.102486 105.178459,44.665176 
	C107.081276,43.495163 109.665154,42.836823 111.886673,43.030083 
	C113.013954,43.128151 114.528236,45.378696 114.843498,46.872303 
	C115.558250,50.258595 115.983818,53.794281 115.829834,57.238060 
	C115.753670,58.941441 114.134140,60.575817 113.212906,62.241417 
	C111.631149,61.038105 109.475990,60.150684 108.599129,58.559040 
	C107.209381,56.036411 106.674706,53.042717 105.555649,49.973412 
z"/>
<path fill="#44B0AF" opacity="1.000000" stroke="none" 
	d="
M93.707565,158.980011 
	C88.708847,159.609543 86.995247,157.320099 86.885155,152.991379 
	C86.800804,149.674545 86.026787,146.362106 86.106133,143.060837 
	C86.137215,141.767334 87.659096,140.509628 88.502022,139.235626 
	C89.755333,140.100739 91.610138,140.691895 92.151749,141.881134 
	C93.939392,145.806305 95.581787,149.870590 96.559563,154.050003 
	C96.879311,155.416779 94.996330,157.298889 93.707565,158.980011 
z"/>
<path fill="#035051" opacity="1.000000" stroke="none" 
	d="
M136.982483,125.013435 
	C129.920395,121.488029 123.020851,117.621994 116.062241,113.865364 
	C114.344559,112.938065 112.434814,112.366570 110.273148,111.415848 
	C110.255096,109.969803 110.577248,108.739418 110.977036,107.198219 
	C118.797462,110.871635 126.531448,114.873146 134.290207,118.825981 
	C135.900818,119.646523 137.603378,120.286545 139.623169,121.088982 
	C139.029602,122.349861 138.076416,123.531517 136.982483,125.013435 
z"/>
<path fill="#035052" opacity="1.000000" stroke="none" 
	d="
M125.916824,139.171143 
	C119.329483,133.879166 112.873528,128.249054 106.201622,122.373024 
	C106.559959,120.917030 107.134262,119.706963 107.879501,118.208466 
	C114.627625,123.733498 121.204803,129.546951 127.953415,135.649582 
	C127.432632,136.903519 126.740417,137.868271 125.916824,139.171143 
z"/>
<path fill="#045152" opacity="1.000000" stroke="none" 
	d="
M140.998444,106.468567 
	C133.877792,105.020531 126.724693,103.282150 119.261765,101.338074 
	C119.907898,100.132507 120.863869,99.132629 122.012558,97.842651 
	C128.770737,99.133736 135.336166,100.714912 142.234634,102.497147 
	C142.033783,103.858208 141.499893,105.018219 140.998444,106.468567 
z"/>
<path fill="#45AEAD" opacity="1.000000" stroke="none" 
	d="
M81.884415,149.207031 
	C81.896614,152.340973 82.967888,156.014191 78.524200,155.865143 
	C74.306793,155.723694 73.583916,152.646606 74.409485,149.023239 
	C74.594002,148.213379 74.467735,147.222931 74.897346,146.600616 
	C75.911636,145.131378 77.174416,143.833694 78.336700,142.466629 
	C79.386719,143.749603 80.546570,144.961899 81.437752,146.347076 
	C81.847763,146.984344 81.731346,147.960327 81.884415,149.207031 
z"/>
<path fill="#45AEAD" opacity="1.000000" stroke="none" 
	d="
M127.253845,54.258125 
	C125.972183,56.132786 124.753136,57.605129 123.534088,59.077469 
	C122.479416,57.604412 121.239380,56.224049 120.439095,54.623772 
	C119.953468,53.652672 120.108139,52.343697 120.044769,51.182716 
	C119.906357,48.646851 119.566765,45.680683 123.259232,45.725357 
	C126.670197,45.766624 128.347870,47.860390 127.776131,51.403774 
	C127.643707,52.224476 127.470764,53.038643 127.253845,54.258125 
z"/>
<path fill="#034E50" opacity="1.000000" stroke="none" 
	d="
M81.920464,67.206093 
	C85.814400,70.624794 89.708344,74.043503 93.778488,77.743790 
	C93.088158,78.865532 92.221634,79.705696 91.169281,80.785263 
	C87.054253,77.564980 83.125069,74.105309 79.284119,70.200180 
	C80.221725,68.905182 81.071091,68.055641 81.920464,67.206093 
z"/>
<path fill="#45ABAB" opacity="1.000000" stroke="none" 
	d="
M64.652893,143.885284 
	C66.452003,143.691757 68.100159,143.596252 69.576996,144.053787 
	C69.870155,144.144608 69.877785,146.575150 69.321983,147.516235 
	C68.915604,148.204330 66.669510,148.736923 66.453545,148.444656 
	C65.536850,147.204102 65.071823,145.629807 64.652893,143.885284 
z"/>
<path fill="#45ABAB" opacity="1.000000" stroke="none" 
	d="
M132.186554,57.354706 
	C132.865891,55.694260 133.548065,54.216835 134.619492,53.119484 
	C134.859650,52.873524 137.001831,53.738575 137.305588,54.484299 
	C137.711533,55.480930 137.339737,57.853920 137.020264,57.905945 
	C135.509445,58.151958 133.902634,57.808430 132.186554,57.354706 
z"/>
<path fill="#034E50" opacity="1.000000" stroke="none" 
	d="
M75.177635,66.789185 
	C74.562561,66.346939 73.947487,65.904694 73.163666,65.232170 
	C74.000435,64.564644 75.005943,64.127388 76.393227,63.531189 
	C76.774994,63.372246 76.880432,63.395336 76.584045,63.993942 
	C75.917656,65.324760 75.547646,66.056969 75.177635,66.789185 
z"/>
<path fill="#035052" opacity="1.000000" stroke="none" 
	d="
M134.964447,134.768158 
	C135.003006,134.347061 135.215622,133.822357 135.657593,133.126343 
	C135.637466,133.524887 135.388000,134.094711 134.964447,134.768158 
z"/>
<path fill="#035052" opacity="1.000000" stroke="none" 
	d="
M130.099609,137.327515 
	C130.436111,137.191483 130.894104,137.184036 131.692322,137.228363 
	C131.428726,137.338791 130.824905,137.397446 130.099609,137.327515 
z"/>
<path fill="#045152" opacity="1.000000" stroke="none" 
	d="
M116.729980,100.657860 
	C116.592796,100.702682 116.200714,100.608566 115.612778,100.276566 
	C115.769638,100.198769 116.122353,100.358841 116.729980,100.657860 
z"/>
<path fill="#045152" opacity="1.000000" stroke="none" 
	d="
M145.272461,103.345627 
	C145.407654,103.303009 145.795364,103.401825 146.382202,103.732826 
	C146.229202,103.805695 145.877090,103.646385 145.272461,103.345627 
z"/>
<path fill="#045152" opacity="1.000000" stroke="none" 
	d="
M112.725189,99.633362 
	C112.586441,99.685555 112.196892,99.601372 111.616936,99.280334 
	C111.775810,99.194656 112.125092,99.345825 112.725189,99.633362 
z"/>
<path fill="#035052" opacity="1.000000" stroke="none" 
	d="
M106.232254,115.851074 
	C106.349915,115.884842 106.615593,116.160271 106.982147,116.706680 
	C106.848770,116.682686 106.614525,116.387711 106.232254,115.851074 
z"/>
<path fill="#035052" opacity="1.000000" stroke="none" 
	d="
M134.215012,135.832123 
	C134.198395,135.705872 134.350906,135.400299 134.735840,134.975815 
	C134.793991,135.137192 134.599274,135.402496 134.215012,135.832123 
z"/>
<path fill="#004646" opacity="1.000000" stroke="none" 
	d="
M75.185814,66.844810 
	C75.547646,66.056969 75.917656,65.324760 76.572647,64.046684 
	C78.417130,64.558426 79.976639,65.616028 81.728302,66.939865 
	C81.071091,68.055641 80.221725,68.905182 79.111526,69.910339 
	C78.551254,69.994286 78.304276,69.839127 77.884445,69.122551 
	C76.874825,68.060638 76.090500,67.476646 75.306175,66.892654 
	C75.306175,66.892654 75.193993,66.900436 75.185814,66.844810 
z"/>
<path fill="#034E50" opacity="1.000000" stroke="none" 
	d="
M75.463692,67.143105 
	C76.090500,67.476646 76.874825,68.060638 77.782059,68.925774 
	C77.143723,68.602455 76.382462,67.998009 75.463692,67.143105 
z"/>
</svg>